<?xml version="1.0" encoding="UTF-8" standalone="no"?>
<!DOCTYPE svg PUBLIC "-//W3C//DTD SVG 1.1//EN"
 "http://www.w3.org/Graphics/SVG/1.1/DTD/svg11.dtd">
<!-- Generated by graphviz version 7.0.6 (20230106.0513)
 -->
<!-- Title: Graphical Class Hierarchy Pages: 1 -->
<svg width="615pt" height="64pt"
 viewBox="0.00 0.00 615.00 64.00" xmlns="http://www.w3.org/2000/svg" xmlns:xlink="http://www.w3.org/1999/xlink">
<g id="graph0" class="graph" transform="scale(1 1) rotate(0) translate(4 60)">
<title>Graphical Class Hierarchy</title>
<!-- Node0 -->
<g id="node1" class="node">
<title>Node0</title>
<g id="a_node1"><a xlink:href="struct_animation_system_1_1_skeletal_1_1_bone_key_frame_transition_base.html" target="_top" xlink:title="Holds two keyframes and describes the transition between them.">
<polygon fill="white" stroke="#666666" points="273,-37 0,-37 0,-18 273,-18 273,-37"/>
<text text-anchor="middle" x="136.5" y="-25" font-family="Helvetica,sans-Serif" font-size="10.00">AnimationSystem::Skeletal::BoneKeyFrameTransitionBase</text>
</a>
</g>
</g>
<!-- Node1 -->
<g id="node2" class="node">
<title>Node1</title>
<g id="a_node2"><a xlink:href="struct_animation_system_1_1_skeletal_1_1_bone_key_frame_rotation_transition.html" target="_top" xlink:title=" ">
<polygon fill="white" stroke="#666666" points="601.5,-56 314.5,-56 314.5,-37 601.5,-37 601.5,-56"/>
<text text-anchor="middle" x="458" y="-44" font-family="Helvetica,sans-Serif" font-size="10.00">AnimationSystem::Skeletal::BoneKeyFrameRotationTransition</text>
</a>
</g>
</g>
<!-- Node0&#45;&gt;Node1 -->
<g id="edge1" class="edge">
<title>Node0&#45;&gt;Node1</title>
<path fill="none" stroke="#63b8ff" d="M284.83,-36.26C294.54,-36.84 304.32,-37.42 314.01,-38"/>
<polygon fill="#63b8ff" stroke="#63b8ff" points="285.16,-32.78 274.97,-35.68 284.75,-39.76 285.16,-32.78"/>
</g>
<!-- Node2 -->
<g id="node3" class="node">
<title>Node2</title>
<g id="a_node3"><a xlink:href="struct_animation_system_1_1_skeletal_1_1_bone_key_frame_translation_transition.html" target="_top" xlink:title=" ">
<polygon fill="white" stroke="#666666" points="607,-19 309,-19 309,0 607,0 607,-19"/>
<text text-anchor="middle" x="458" y="-7" font-family="Helvetica,sans-Serif" font-size="10.00">AnimationSystem::Skeletal::BoneKeyFrameTranslationTransition</text>
</a>
</g>
</g>
<!-- Node0&#45;&gt;Node2 -->
<g id="edge2" class="edge">
<title>Node0&#45;&gt;Node2</title>
<path fill="none" stroke="#63b8ff" d="M284.68,-19.21C292.65,-18.76 300.66,-18.31 308.63,-17.86"/>
<polygon fill="#63b8ff" stroke="#63b8ff" points="284.76,-15.7 274.97,-19.76 285.15,-22.69 284.76,-15.7"/>
</g>
</g>
</svg>
