<?xml version="1.0" encoding="UTF-8" standalone="no"?>
<!DOCTYPE svg PUBLIC "-//W3C//DTD SVG 1.1//EN"
 "http://www.w3.org/Graphics/SVG/1.1/DTD/svg11.dtd">
<!-- Generated by graphviz version 7.0.6 (20230106.0513)
 -->
<!-- Title: Graphical Class Hierarchy Pages: 1 -->
<svg width="1190pt" height="138pt"
 viewBox="0.00 0.00 1190.00 138.00" xmlns="http://www.w3.org/2000/svg" xmlns:xlink="http://www.w3.org/1999/xlink">
<g id="graph0" class="graph" transform="scale(1 1) rotate(0) translate(4 134)">
<title>Graphical Class Hierarchy</title>
<!-- Node0 -->
<g id="node1" class="node">
<title>Node0</title>
<g id="a_node1"><a xlink:href="class_animation_system_1_1_mesh_1_1_blend_tree_1_1_i_animator_node.html" target="_top" xlink:title="Interface for any node containing an animator.">
<polygon fill="white" stroke="#666666" points="503,-130 260,-130 260,-111 503,-111 503,-130"/>
<text text-anchor="middle" x="381.5" y="-118" font-family="Helvetica,sans-Serif" font-size="10.00">AnimationSystem::Mesh::BlendTree::IAnimatorNode</text>
</a>
</g>
</g>
<!-- Node1 -->
<g id="node2" class="node">
<title>Node1</title>
<g id="a_node2"><a xlink:href="class_animation_system_1_1_mesh_1_1_blend_tree_1_1_simple_animation_node.html" target="_top" xlink:title="Node containing an animation.">
<polygon fill="white" stroke="#666666" points="814,-130 539,-130 539,-111 814,-111 814,-130"/>
<text text-anchor="middle" x="676.5" y="-118" font-family="Helvetica,sans-Serif" font-size="10.00">AnimationSystem::Mesh::BlendTree::SimpleAnimationNode</text>
</a>
</g>
</g>
<!-- Node0&#45;&gt;Node1 -->
<g id="edge1" class="edge">
<title>Node0&#45;&gt;Node1</title>
<path fill="none" stroke="#63b8ff" d="M514.63,-120.5C522.64,-120.5 530.7,-120.5 538.72,-120.5"/>
<polygon fill="#63b8ff" stroke="#63b8ff" points="514.88,-117 504.88,-120.5 514.88,-124 514.88,-117"/>
</g>
<!-- Node3 -->
<g id="node3" class="node">
<title>Node3</title>
<g id="a_node3"><a xlink:href="class_animation_system_1_1_mesh_1_1_blend_tree_1_1_node_base.html" target="_top" xlink:title="Base class for nodes in the blend tree.">
<polygon fill="white" stroke="#666666" points="224,-74 0,-74 0,-55 224,-55 224,-74"/>
<text text-anchor="middle" x="112" y="-62" font-family="Helvetica,sans-Serif" font-size="10.00">AnimationSystem::Mesh::BlendTree::NodeBase</text>
</a>
</g>
</g>
<!-- Node2 -->
<g id="node4" class="node">
<title>Node2</title>
<g id="a_node4"><a xlink:href="class_animation_system_1_1_mesh_1_1_blend_tree_1_1_leaf_node.html" target="_top" xlink:title="A blend tree node with no children. Nodes can inherit from this class to create a specialised leaf no...">
<polygon fill="white" stroke="#666666" points="491.5,-93 271.5,-93 271.5,-74 491.5,-74 491.5,-93"/>
<text text-anchor="middle" x="381.5" y="-81" font-family="Helvetica,sans-Serif" font-size="10.00">AnimationSystem::Mesh::BlendTree::LeafNode</text>
</a>
</g>
</g>
<!-- Node3&#45;&gt;Node2 -->
<g id="edge2" class="edge">
<title>Node3&#45;&gt;Node2</title>
<path fill="none" stroke="#63b8ff" d="M235.45,-73.2C247.31,-74.04 259.29,-74.89 271.02,-75.72"/>
<polygon fill="#63b8ff" stroke="#63b8ff" points="235.85,-69.72 225.63,-72.5 235.36,-76.7 235.85,-69.72"/>
</g>
<!-- Node4 -->
<g id="node5" class="node">
<title>Node4</title>
<g id="a_node5"><a xlink:href="class_animation_system_1_1_mesh_1_1_blend_tree_1_1_regular_node.html" target="_top" xlink:title="A blend tree node that may have children. Nodes can inherit from this class to create a specialised n...">
<polygon fill="white" stroke="#666666" points="499,-56 264,-56 264,-37 499,-37 499,-56"/>
<text text-anchor="middle" x="381.5" y="-44" font-family="Helvetica,sans-Serif" font-size="10.00">AnimationSystem::Mesh::BlendTree::RegularNode</text>
</a>
</g>
</g>
<!-- Node3&#45;&gt;Node4 -->
<g id="edge4" class="edge">
<title>Node3&#45;&gt;Node4</title>
<path fill="none" stroke="#63b8ff" d="M235.51,-56.26C244.89,-55.63 254.34,-54.99 263.68,-54.36"/>
<polygon fill="#63b8ff" stroke="#63b8ff" points="235.37,-52.76 225.63,-56.92 235.84,-59.74 235.37,-52.76"/>
</g>
<!-- Node2&#45;&gt;Node1 -->
<g id="edge3" class="edge">
<title>Node2&#45;&gt;Node1</title>
<path fill="none" stroke="#63b8ff" d="M472.65,-94.88C512.21,-99.88 558.25,-105.69 596.46,-110.52"/>
<polygon fill="#63b8ff" stroke="#63b8ff" points="473.27,-91.43 462.91,-93.65 472.39,-98.38 473.27,-91.43"/>
</g>
<!-- Node5 -->
<g id="node6" class="node">
<title>Node5</title>
<g id="a_node6"><a xlink:href="class_animation_system_1_1_mesh_1_1_blend_tree_1_1_i_k_node.html" target="_top" xlink:title="A node that performs an IK transformation on the result from it&#39;s child node.">
<polygon fill="white" stroke="#666666" points="782,-93 571,-93 571,-74 782,-74 782,-93"/>
<text text-anchor="middle" x="676.5" y="-81" font-family="Helvetica,sans-Serif" font-size="10.00">AnimationSystem::Mesh::BlendTree::IKNode</text>
</a>
</g>
</g>
<!-- Node4&#45;&gt;Node5 -->
<g id="edge5" class="edge">
<title>Node4&#45;&gt;Node5</title>
<path fill="none" stroke="#63b8ff" d="M472.65,-57.88C512.21,-62.88 558.25,-68.69 596.46,-73.52"/>
<polygon fill="#63b8ff" stroke="#63b8ff" points="473.27,-54.43 462.91,-56.65 472.39,-61.38 473.27,-54.43"/>
</g>
<!-- Node6 -->
<g id="node7" class="node">
<title>Node6</title>
<g id="a_node7"><a xlink:href="class_animation_system_1_1_mesh_1_1_blend_tree_1_1_linear_blend_node.html" target="_top" xlink:title="A node with two children that linearly blends the results of each child node together.">
<polygon fill="white" stroke="#666666" points="803,-56 550,-56 550,-37 803,-37 803,-56"/>
<text text-anchor="middle" x="676.5" y="-44" font-family="Helvetica,sans-Serif" font-size="10.00">AnimationSystem::Mesh::BlendTree::LinearBlendNode</text>
</a>
</g>
</g>
<!-- Node4&#45;&gt;Node6 -->
<g id="edge6" class="edge">
<title>Node4&#45;&gt;Node6</title>
<path fill="none" stroke="#63b8ff" d="M510.5,-46.5C523.48,-46.5 536.67,-46.5 549.63,-46.5"/>
<polygon fill="#63b8ff" stroke="#63b8ff" points="510.66,-43 500.66,-46.5 510.66,-50 510.66,-43"/>
</g>
<!-- Node8 -->
<g id="node9" class="node">
<title>Node8</title>
<g id="a_node9"><a xlink:href="class_animation_system_1_1_mesh_1_1_blend_tree_1_1_root_node.html" target="_top" xlink:title="The root node in an animation tree.">
<polygon fill="white" stroke="#666666" points="787.5,-19 565.5,-19 565.5,0 787.5,0 787.5,-19"/>
<text text-anchor="middle" x="676.5" y="-7" font-family="Helvetica,sans-Serif" font-size="10.00">AnimationSystem::Mesh::BlendTree::RootNode</text>
</a>
</g>
</g>
<!-- Node4&#45;&gt;Node8 -->
<g id="edge8" class="edge">
<title>Node4&#45;&gt;Node8</title>
<path fill="none" stroke="#63b8ff" d="M472.65,-35.12C512.21,-30.12 558.25,-24.31 596.46,-19.48"/>
<polygon fill="#63b8ff" stroke="#63b8ff" points="472.39,-31.62 462.91,-36.35 473.27,-38.57 472.39,-31.62"/>
</g>
<!-- Node7 -->
<g id="node8" class="node">
<title>Node7</title>
<g id="a_node8"><a xlink:href="class_animation_system_1_1_mesh_1_1_blend_tree_1_1_two_animators_linear_transition_node.html" target="_top" xlink:title="Node that has two children, both of which are animation nodes, that can perform a transition between ...">
<polygon fill="white" stroke="#666666" points="1182,-56 850,-56 850,-37 1182,-37 1182,-56"/>
<text text-anchor="middle" x="1016" y="-44" font-family="Helvetica,sans-Serif" font-size="10.00">AnimationSystem::Mesh::BlendTree::TwoAnimatorsLinearTransitionNode</text>
</a>
</g>
</g>
<!-- Node6&#45;&gt;Node7 -->
<g id="edge7" class="edge">
<title>Node6&#45;&gt;Node7</title>
<path fill="none" stroke="#63b8ff" d="M814.64,-46.5C826.19,-46.5 837.94,-46.5 849.67,-46.5"/>
<polygon fill="#63b8ff" stroke="#63b8ff" points="814.69,-43 804.69,-46.5 814.69,-50 814.69,-43"/>
</g>
</g>
</svg>
