<?xml version="1.0" encoding="UTF-8" standalone="no"?>
<!DOCTYPE svg PUBLIC "-//W3C//DTD SVG 1.1//EN"
 "http://www.w3.org/Graphics/SVG/1.1/DTD/svg11.dtd">
<!-- Generated by graphviz version 7.0.6 (20230106.0513)
 -->
<!-- Title: Graphical Class Hierarchy Pages: 1 -->
<svg width="460pt" height="64pt"
 viewBox="0.00 0.00 460.00 64.00" xmlns="http://www.w3.org/2000/svg" xmlns:xlink="http://www.w3.org/1999/xlink">
<g id="graph0" class="graph" transform="scale(1 1) rotate(0) translate(4 60)">
<title>Graphical Class Hierarchy</title>
<!-- Node0 -->
<g id="node1" class="node">
<title>Node0</title>
<g id="a_node1"><a xlink:href="class_animation_system_1_1_sprite_1_1_i_sprite_animator.html" target="_top" xlink:title="An animator for a sprite.">
<polygon fill="white" stroke="#666666" points="198,-37 0,-37 0,-18 198,-18 198,-37"/>
<text text-anchor="middle" x="99" y="-25" font-family="Helvetica,sans-Serif" font-size="10.00">AnimationSystem::Sprite::ISpriteAnimator</text>
</a>
</g>
</g>
<!-- Node1 -->
<g id="node2" class="node">
<title>Node1</title>
<g id="a_node2"><a xlink:href="class_animation_system_1_1_skeletal_1_1_skeleton_animator.html" target="_top" xlink:title="Animator for skeletal animations.">
<polygon fill="white" stroke="#666666" points="452,-56 234,-56 234,-37 452,-37 452,-56"/>
<text text-anchor="middle" x="343" y="-44" font-family="Helvetica,sans-Serif" font-size="10.00">AnimationSystem::Skeletal::SkeletonAnimator</text>
</a>
</g>
</g>
<!-- Node0&#45;&gt;Node1 -->
<g id="edge1" class="edge">
<title>Node0&#45;&gt;Node1</title>
<path fill="none" stroke="#63b8ff" d="M209.7,-36.11C217.71,-36.74 225.78,-37.38 233.78,-38"/>
<polygon fill="#63b8ff" stroke="#63b8ff" points="210.18,-32.64 199.94,-35.35 209.63,-39.62 210.18,-32.64"/>
</g>
<!-- Node2 -->
<g id="node3" class="node">
<title>Node2</title>
<g id="a_node3"><a xlink:href="class_animation_system_1_1_sprite_1_1_sprite_animator.html" target="_top" xlink:title="Spritesheet animator for an animated sprite.">
<polygon fill="white" stroke="#666666" points="441,-19 245,-19 245,0 441,0 441,-19"/>
<text text-anchor="middle" x="343" y="-7" font-family="Helvetica,sans-Serif" font-size="10.00">AnimationSystem::Sprite::SpriteAnimator</text>
</a>
</g>
</g>
<!-- Node0&#45;&gt;Node2 -->
<g id="edge2" class="edge">
<title>Node0&#45;&gt;Node2</title>
<path fill="none" stroke="#63b8ff" d="M209.63,-19.35C221.37,-18.47 233.25,-17.59 244.83,-16.73"/>
<polygon fill="#63b8ff" stroke="#63b8ff" points="209.65,-15.83 199.94,-20.07 210.17,-22.81 209.65,-15.83"/>
</g>
</g>
</svg>
