<?xml version="1.0" encoding="UTF-8" standalone="no"?>
<!DOCTYPE svg PUBLIC "-//W3C//DTD SVG 1.1//EN"
 "http://www.w3.org/Graphics/SVG/1.1/DTD/svg11.dtd">
<!-- Generated by graphviz version 7.0.6 (20230106.0513)
 -->
<!-- Title: Graphical Class Hierarchy Pages: 1 -->
<svg width="436pt" height="64pt"
 viewBox="0.00 0.00 436.00 64.00" xmlns="http://www.w3.org/2000/svg" xmlns:xlink="http://www.w3.org/1999/xlink">
<g id="graph0" class="graph" transform="scale(1 1) rotate(0) translate(4 60)">
<title>Graphical Class Hierarchy</title>
<!-- Node0 -->
<g id="node1" class="node">
<title>Node0</title>
<g id="a_node1"><a xlink:href="class_animation_system_1_1_i_animated_sprite.html" target="_top" xlink:title="A sprite with an animator.">
<polygon fill="white" stroke="#666666" points="169,-37 0,-37 0,-18 169,-18 169,-37"/>
<text text-anchor="middle" x="84.5" y="-25" font-family="Helvetica,sans-Serif" font-size="10.00">AnimationSystem::IAnimatedSprite</text>
</a>
</g>
</g>
<!-- Node1 -->
<g id="node2" class="node">
<title>Node1</title>
<g id="a_node2"><a xlink:href="class_animation_system_1_1_skeletal_1_1_skeleton_sprite.html" target="_top" xlink:title="An animated sprite, animated using skeletal animation.">
<polygon fill="white" stroke="#666666" points="419,-56 214,-56 214,-37 419,-37 419,-56"/>
<text text-anchor="middle" x="316.5" y="-44" font-family="Helvetica,sans-Serif" font-size="10.00">AnimationSystem::Skeletal::SkeletonSprite</text>
</a>
</g>
</g>
<!-- Node0&#45;&gt;Node1 -->
<g id="edge1" class="edge">
<title>Node0&#45;&gt;Node1</title>
<path fill="none" stroke="#63b8ff" d="M180.54,-35.35C191.53,-36.26 202.78,-37.19 213.86,-38.1"/>
<polygon fill="#63b8ff" stroke="#63b8ff" points="180.95,-31.87 170.69,-34.54 180.37,-38.85 180.95,-31.87"/>
</g>
<!-- Node2 -->
<g id="node3" class="node">
<title>Node2</title>
<g id="a_node3"><a xlink:href="class_animation_system_1_1_sprite_1_1_atlas_animation_sprite.html" target="_top" xlink:title="An animated sprite, animated using spritesheet animation.">
<polygon fill="white" stroke="#666666" points="428,-19 205,-19 205,0 428,0 428,-19"/>
<text text-anchor="middle" x="316.5" y="-7" font-family="Helvetica,sans-Serif" font-size="10.00">AnimationSystem::Sprite::AtlasAnimationSprite</text>
</a>
</g>
</g>
<!-- Node0&#45;&gt;Node2 -->
<g id="edge2" class="edge">
<title>Node0&#45;&gt;Node2</title>
<path fill="none" stroke="#63b8ff" d="M180.42,-20.07C188.44,-19.44 196.59,-18.81 204.72,-18.17"/>
<polygon fill="#63b8ff" stroke="#63b8ff" points="180.39,-16.56 170.69,-20.83 180.94,-23.54 180.39,-16.56"/>
</g>
</g>
</svg>
