<?xml version="1.0" encoding="UTF-8" standalone="no"?>
<!DOCTYPE svg PUBLIC "-//W3C//DTD SVG 1.1//EN"
 "http://www.w3.org/Graphics/SVG/1.1/DTD/svg11.dtd">
<!-- Generated by graphviz version 7.0.6 (20230106.0513)
 -->
<!-- Title: AnimationSystem::Sprite::SubTextureFrame Pages: 1 -->
<svg width="667pt" height="258pt"
 viewBox="0.00 0.00 667.00 258.00" xmlns="http://www.w3.org/2000/svg" xmlns:xlink="http://www.w3.org/1999/xlink">
<g id="graph0" class="graph" transform="scale(1 1) rotate(0) translate(4 254)">
<title>AnimationSystem::Sprite::SubTextureFrame</title>
<!-- Node1 -->
<g id="node1" class="node">
<title>Node1</title>
<g id="a_node1"><a xlink:title=" ">
<polygon fill="#999999" stroke="#666666" points="605,-118 0,-118 0,0 605,0 605,-118"/>
<text text-anchor="middle" x="302.5" y="-106" font-family="Helvetica,sans-Serif" font-size="10.00">{AnimationSystem::Sprite::SubTextureFrame</text>
<text text-anchor="start" x="8" y="-95" font-family="Helvetica,sans-Serif" font-size="10.00">|+ float const x</text>
<text text-anchor="start" x="8" y="-84" font-family="Helvetica,sans-Serif" font-size="10.00">+ float const y</text>
<text text-anchor="start" x="8" y="-73" font-family="Helvetica,sans-Serif" font-size="10.00">+ float const width</text>
<text text-anchor="start" x="8" y="-62" font-family="Helvetica,sans-Serif" font-size="10.00">+ float const height</text>
<text text-anchor="start" x="8" y="-51" font-family="Helvetica,sans-Serif" font-size="10.00">+ gef::Vector2 const atlas_dimensions</text>
<text text-anchor="start" x="8" y="-40" font-family="Helvetica,sans-Serif" font-size="10.00">|+ StringId const GetName() const</text>
<text text-anchor="start" x="8" y="-29" font-family="Helvetica,sans-Serif" font-size="10.00">+ &#160;SubTextureFrame(std::unique_ptr&lt; JsonResult &gt; const &amp;subtextureData, StringId const name, gef::Vector2 const &amp;atlasDimensions)</text>
<text text-anchor="start" x="8" y="-18" font-family="Helvetica,sans-Serif" font-size="10.00">+ Transform2d const &amp; GetTransform() const</text>
<text text-anchor="middle" x="302.5" y="-7" font-family="Helvetica,sans-Serif" font-size="10.00">}</text>
</a>
</g>
</g>
<!-- Node2 -->
<g id="node2" class="node">
<title>Node2</title>
<g id="a_node2"><a xlink:title=" ">
<polygon fill="white" stroke="#bfbfbf" points="196,-222.5 143,-222.5 143,-192.5 196,-192.5 196,-222.5"/>
<text text-anchor="middle" x="169.5" y="-210.5" font-family="Helvetica,sans-Serif" font-size="10.00">{StringId</text>
<text text-anchor="middle" x="169.5" y="-199.5" font-family="Helvetica,sans-Serif" font-size="10.00">||}</text>
</a>
</g>
</g>
<!-- Node2&#45;&gt;Node1 -->
<g id="edge1" class="edge">
<title>Node2&#45;&gt;Node1</title>
<path fill="none" stroke="#404040" d="M181.31,-192.14C188.02,-184.07 196.62,-173.88 204.5,-165 215.31,-152.81 226.99,-140.01 238.39,-127.69"/>
<polygon fill="none" stroke="#404040" points="238.25,-127.84 239.4,-120.72 246.42,-119.05 245.27,-126.16 238.25,-127.84"/>
<text text-anchor="middle" x="245.5" y="-139" font-family="Helvetica,sans-Serif" font-size="10.00"> +name</text>
</g>
<!-- Node3 -->
<g id="node3" class="node">
<title>Node3</title>
<g id="a_node3"><a xlink:href="struct_animation_system_1_1_sprite_1_1_sub_texture_frame_1_1_frame.html" target="_top" xlink:title=" ">
<polygon fill="white" stroke="#bfbfbf" points="659,-250 214,-250 214,-165 659,-165 659,-250"/>
<text text-anchor="middle" x="436.5" y="-238" font-family="Helvetica,sans-Serif" font-size="10.00">{AnimationSystem::Sprite::SubTextureFrame::Frame</text>
<text text-anchor="start" x="222" y="-227" font-family="Helvetica,sans-Serif" font-size="10.00">|+ float const frame_x</text>
<text text-anchor="start" x="222" y="-216" font-family="Helvetica,sans-Serif" font-size="10.00">+ float const frame_y</text>
<text text-anchor="start" x="222" y="-205" font-family="Helvetica,sans-Serif" font-size="10.00">+ float const frame_width</text>
<text text-anchor="start" x="222" y="-194" font-family="Helvetica,sans-Serif" font-size="10.00">+ float const frame_height</text>
<text text-anchor="start" x="222" y="-183" font-family="Helvetica,sans-Serif" font-size="10.00">|+ &#160;Frame(std::unique_ptr&lt; JsonResult &gt; const &amp;subtextureData, SubTextureFrame const &amp;parent)</text>
<text text-anchor="middle" x="436.5" y="-172" font-family="Helvetica,sans-Serif" font-size="10.00">}</text>
</a>
</g>
</g>
<!-- Node3&#45;&gt;Node1 -->
<g id="edge2" class="edge">
<title>Node3&#45;&gt;Node1</title>
<path fill="none" stroke="#404040" d="M398.1,-164.52C387.62,-153.06 376,-140.35 364.57,-127.86"/>
<polygon fill="none" stroke="#404040" points="364.59,-127.88 357.59,-126.15 356.49,-119.03 363.49,-120.76 364.59,-127.88"/>
<text text-anchor="middle" x="398.5" y="-139" font-family="Helvetica,sans-Serif" font-size="10.00"> +frame</text>
</g>
</g>
</svg>
