<?xml version="1.0" encoding="UTF-8" standalone="no"?>
<!DOCTYPE svg PUBLIC "-//W3C//DTD SVG 1.1//EN"
 "http://www.w3.org/Graphics/SVG/1.1/DTD/svg11.dtd">
<!-- Generated by graphviz version 7.0.6 (20230106.0513)
 -->
<!-- Title: AnimationSystem::Mesh::BlendTree::IKNode::DataBlock Pages: 1 -->
<svg width="287pt" height="203pt"
 viewBox="0.00 0.00 286.50 203.00" xmlns="http://www.w3.org/2000/svg" xmlns:xlink="http://www.w3.org/1999/xlink">
<g id="graph0" class="graph" transform="scale(1 1) rotate(0) translate(4 199)">
<title>AnimationSystem::Mesh::BlendTree::IKNode::DataBlock</title>
<!-- Node1 -->
<g id="node1" class="node">
<title>Node1</title>
<g id="a_node1"><a xlink:title=" ">
<polygon fill="#999999" stroke="#666666" points="265,-41 0,-41 0,0 265,0 265,-41"/>
<text text-anchor="middle" x="132.5" y="-29" font-family="Helvetica,sans-Serif" font-size="10.00">{AnimationSystem::Mesh::BlendTree::IKNode::DataBlock</text>
<text text-anchor="start" x="8" y="-18" font-family="Helvetica,sans-Serif" font-size="10.00">|+ gef::Vector4 TargetPosition</text>
<text text-anchor="middle" x="132.5" y="-7" font-family="Helvetica,sans-Serif" font-size="10.00">|}</text>
</a>
</g>
</g>
<!-- Node2 -->
<g id="node2" class="node">
<title>Node2</title>
<g id="a_node2"><a xlink:title=" ">
<polygon fill="white" stroke="#bfbfbf" points="160,-118 73,-118 73,-88 160,-88 160,-118"/>
<text text-anchor="middle" x="116.5" y="-106" font-family="Helvetica,sans-Serif" font-size="10.00">{DataBlockBase</text>
<text text-anchor="middle" x="116.5" y="-95" font-family="Helvetica,sans-Serif" font-size="10.00">||}</text>
</a>
</g>
</g>
<!-- Node2&#45;&gt;Node1 -->
<g id="edge1" class="edge">
<title>Node2&#45;&gt;Node1</title>
<path fill="none" stroke="#63b8ff" d="M121.56,-76.56C123.83,-65.14 126.47,-51.86 128.58,-41.21"/>
<polygon fill="none" stroke="#63b8ff" points="118.17,-75.63 119.66,-86.12 125.04,-77 118.17,-75.63"/>
</g>
<!-- Node3 -->
<g id="node3" class="node">
<title>Node3</title>
<g id="a_node3"><a xlink:title=" ">
<polygon fill="white" stroke="#bfbfbf" points="252.5,-118 178.5,-118 178.5,-88 252.5,-88 252.5,-118"/>
<text text-anchor="middle" x="215.5" y="-106" font-family="Helvetica,sans-Serif" font-size="10.00">{vector&lt; int &gt;</text>
<text text-anchor="middle" x="215.5" y="-95" font-family="Helvetica,sans-Serif" font-size="10.00">||}</text>
</a>
</g>
</g>
<!-- Node3&#45;&gt;Node1 -->
<g id="edge2" class="edge">
<title>Node3&#45;&gt;Node1</title>
<path fill="none" stroke="#404040" d="M200.66,-87.61C189.93,-77.2 175.07,-62.79 161.97,-50.08"/>
<polygon fill="none" stroke="#404040" points="162.08,-50.19 154.99,-48.89 153.47,-41.84 160.56,-43.14 162.08,-50.19"/>
<text text-anchor="middle" x="229.5" y="-62" font-family="Helvetica,sans-Serif" font-size="10.00"> +AffectedBoneIndices</text>
</g>
<!-- Node4 -->
<g id="node4" class="node">
<title>Node4</title>
<g id="a_node4"><a xlink:title=" ">
<polygon fill="white" stroke="#bfbfbf" points="238,-195 193,-195 193,-165 238,-165 238,-195"/>
<text text-anchor="middle" x="215.5" y="-183" font-family="Helvetica,sans-Serif" font-size="10.00">{vector</text>
<text text-anchor="middle" x="215.5" y="-172" font-family="Helvetica,sans-Serif" font-size="10.00">||}</text>
</a>
</g>
</g>
<!-- Node4&#45;&gt;Node3 -->
<g id="edge3" class="edge">
<title>Node4&#45;&gt;Node3</title>
<path fill="none" stroke="orange" d="M215.5,-153.23C215.5,-141.58 215.5,-128.26 215.5,-118.42"/>
<polygon fill="orange" stroke="orange" points="212,-153.03 215.5,-163.03 219,-153.03 212,-153.03"/>
<text text-anchor="middle" x="231.5" y="-139" font-family="Helvetica,sans-Serif" font-size="10.00"> &lt; int &gt;</text>
</g>
</g>
</svg>
