<?xml version="1.0" encoding="UTF-8" standalone="no"?>
<!DOCTYPE svg PUBLIC "-//W3C//DTD SVG 1.1//EN"
 "http://www.w3.org/Graphics/SVG/1.1/DTD/svg11.dtd">
<!-- Generated by graphviz version 7.0.6 (20230106.0513)
 -->
<!-- Title: AnimationSystem::Skeletal::BoneTranslationKeyFrame Pages: 1 -->
<svg width="597pt" height="237pt"
 viewBox="0.00 0.00 597.00 237.00" xmlns="http://www.w3.org/2000/svg" xmlns:xlink="http://www.w3.org/1999/xlink">
<g id="graph0" class="graph" transform="scale(1 1) rotate(0) translate(4 233)">
<title>AnimationSystem::Skeletal::BoneTranslationKeyFrame</title>
<!-- Node1 -->
<g id="node1" class="node">
<title>Node1</title>
<g id="a_node1"><a xlink:title=" ">
<polygon fill="#999999" stroke="#666666" points="589,-63 0,-63 0,0 589,0 589,-63"/>
<text text-anchor="middle" x="294.5" y="-51" font-family="Helvetica,sans-Serif" font-size="10.00">{AnimationSystem::Skeletal::BoneTranslationKeyFrame</text>
<text text-anchor="start" x="8" y="-40" font-family="Helvetica,sans-Serif" font-size="10.00">|+ gef::Vector2 const DeltaPosition</text>
<text text-anchor="start" x="8" y="-29" font-family="Helvetica,sans-Serif" font-size="10.00">|+ &#160;BoneTranslationKeyFrame(StringId const name, float const absoluteTimeThisKeyframeBegan, gef::Vector2 const &amp;deltaPosition)</text>
<text text-anchor="start" x="8" y="-18" font-family="Helvetica,sans-Serif" font-size="10.00">+ bool IsEqualTo(BoneTranslationKeyFrame const &amp;other) const</text>
<text text-anchor="middle" x="294.5" y="-7" font-family="Helvetica,sans-Serif" font-size="10.00">}</text>
</a>
</g>
</g>
<!-- Node2 -->
<g id="node2" class="node">
<title>Node2</title>
<g id="a_node2"><a xlink:href="struct_animation_system_1_1_skeletal_1_1_bone_key_frame.html" target="_top" xlink:title="Abstract base class for a key frame of a bone.">
<polygon fill="white" stroke="#666666" points="489,-152 100,-152 100,-100 489,-100 489,-152"/>
<text text-anchor="middle" x="294.5" y="-140" font-family="Helvetica,sans-Serif" font-size="10.00">{AnimationSystem::Skeletal::BoneKeyFrame</text>
<text text-anchor="start" x="108" y="-129" font-family="Helvetica,sans-Serif" font-size="10.00">|+ float const KeyframeHitTime</text>
<text text-anchor="start" x="108" y="-118" font-family="Helvetica,sans-Serif" font-size="10.00">|# &#160;BoneKeyFrame(StringId const name, float const absoluteTimeThisKeyframeBegan)</text>
<text text-anchor="middle" x="294.5" y="-107" font-family="Helvetica,sans-Serif" font-size="10.00">}</text>
</a>
</g>
</g>
<!-- Node2&#45;&gt;Node1 -->
<g id="edge1" class="edge">
<title>Node2&#45;&gt;Node1</title>
<path fill="none" stroke="#63b8ff" d="M294.5,-88.4C294.5,-80.11 294.5,-71.38 294.5,-63.35"/>
<polygon fill="none" stroke="#63b8ff" points="291,-88.21 294.5,-98.21 298,-88.21 291,-88.21"/>
</g>
<!-- Node3 -->
<g id="node3" class="node">
<title>Node3</title>
<g id="a_node3"><a xlink:title=" ">
<polygon fill="white" stroke="#bfbfbf" points="321,-229 268,-229 268,-199 321,-199 321,-229"/>
<text text-anchor="middle" x="294.5" y="-217" font-family="Helvetica,sans-Serif" font-size="10.00">{StringId</text>
<text text-anchor="middle" x="294.5" y="-206" font-family="Helvetica,sans-Serif" font-size="10.00">||}</text>
</a>
</g>
</g>
<!-- Node3&#45;&gt;Node2 -->
<g id="edge2" class="edge">
<title>Node3&#45;&gt;Node2</title>
<path fill="none" stroke="#404040" d="M294.5,-198.8C294.5,-189.65 294.5,-177.28 294.5,-165.38"/>
<polygon fill="none" stroke="#404040" points="294.5,-165.25 290.5,-159.25 294.5,-153.25 298.5,-159.25 294.5,-165.25"/>
<text text-anchor="middle" x="323.5" y="-173" font-family="Helvetica,sans-Serif" font-size="10.00"> +BoneName</text>
</g>
</g>
</svg>
