<?xml version="1.0" encoding="UTF-8" standalone="no"?>
<!DOCTYPE svg PUBLIC "-//W3C//DTD SVG 1.1//EN"
 "http://www.w3.org/Graphics/SVG/1.1/DTD/svg11.dtd">
<!-- Generated by graphviz version 7.0.6 (20230106.0513)
 -->
<!-- Title: AnimationSystem::Mesh::BlendTree::TwoAnimatorsLinearTransitionNode::DataBlock Pages: 1 -->
<svg width="394pt" height="236pt"
 viewBox="0.00 0.00 394.00 236.00" xmlns="http://www.w3.org/2000/svg" xmlns:xlink="http://www.w3.org/1999/xlink">
<g id="graph0" class="graph" transform="scale(1 1) rotate(0) translate(4 232)">
<title>AnimationSystem::Mesh::BlendTree::TwoAnimatorsLinearTransitionNode::DataBlock</title>
<!-- Node1 -->
<g id="node1" class="node">
<title>Node1</title>
<g id="a_node1"><a xlink:title=" ">
<polygon fill="#999999" stroke="#666666" points="386,-85 0,-85 0,0 386,0 386,-85"/>
<text text-anchor="middle" x="193" y="-73" font-family="Helvetica,sans-Serif" font-size="10.00">{AnimationSystem::Mesh::BlendTree::TwoAnimatorsLinearTransitionNode::DataBlock</text>
<text text-anchor="start" x="8" y="-62" font-family="Helvetica,sans-Serif" font-size="10.00">||+ void SetNewTransition(AnimationSwapTransition const &amp;transition)</text>
<text text-anchor="start" x="8" y="-51" font-family="Helvetica,sans-Serif" font-size="10.00">+ void EndTransition()</text>
<text text-anchor="start" x="8" y="-40" font-family="Helvetica,sans-Serif" font-size="10.00">+ void ActivateTransition()</text>
<text text-anchor="start" x="8" y="-29" font-family="Helvetica,sans-Serif" font-size="10.00">+ bool HasTransition() const</text>
<text text-anchor="start" x="8" y="-18" font-family="Helvetica,sans-Serif" font-size="10.00">+ AnimationSwapTransition &amp; Transition()</text>
<text text-anchor="middle" x="193" y="-7" font-family="Helvetica,sans-Serif" font-size="10.00">}</text>
</a>
</g>
</g>
<!-- Node2 -->
<g id="node2" class="node">
<title>Node2</title>
<g id="a_node2"><a xlink:href="struct_animation_system_1_1_mesh_1_1_blend_tree_1_1_linear_blend_node_1_1_data_block.html" target="_top" xlink:title=" ">
<polygon fill="white" stroke="#bfbfbf" points="346.5,-162 39.5,-162 39.5,-121 346.5,-121 346.5,-162"/>
<text text-anchor="middle" x="193" y="-150" font-family="Helvetica,sans-Serif" font-size="10.00">{AnimationSystem::Mesh::BlendTree::LinearBlendNode::DataBlock</text>
<text text-anchor="start" x="47.5" y="-139" font-family="Helvetica,sans-Serif" font-size="10.00">|+ BlendLerpValue BlendPercent</text>
<text text-anchor="middle" x="193" y="-128" font-family="Helvetica,sans-Serif" font-size="10.00">|}</text>
</a>
</g>
</g>
<!-- Node2&#45;&gt;Node1 -->
<g id="edge1" class="edge">
<title>Node2&#45;&gt;Node1</title>
<path fill="none" stroke="#63b8ff" d="M193,-109.42C193,-101.69 193,-93.28 193,-85.13"/>
<polygon fill="none" stroke="#63b8ff" points="189.5,-109.36 193,-119.36 196.5,-109.36 189.5,-109.36"/>
</g>
<!-- Node3 -->
<g id="node3" class="node">
<title>Node3</title>
<g id="a_node3"><a xlink:title=" ">
<polygon fill="white" stroke="#bfbfbf" points="236.5,-228 149.5,-228 149.5,-198 236.5,-198 236.5,-228"/>
<text text-anchor="middle" x="193" y="-216" font-family="Helvetica,sans-Serif" font-size="10.00">{DataBlockBase</text>
<text text-anchor="middle" x="193" y="-205" font-family="Helvetica,sans-Serif" font-size="10.00">||}</text>
</a>
</g>
</g>
<!-- Node3&#45;&gt;Node2 -->
<g id="edge2" class="edge">
<title>Node3&#45;&gt;Node2</title>
<path fill="none" stroke="#63b8ff" d="M193,-186.36C193,-178.45 193,-169.87 193,-162.42"/>
<polygon fill="none" stroke="#63b8ff" points="189.5,-186.09 193,-196.09 196.5,-186.09 189.5,-186.09"/>
</g>
</g>
</svg>
