<?xml version="1.0" encoding="UTF-8" standalone="no"?>
<!DOCTYPE svg PUBLIC "-//W3C//DTD SVG 1.1//EN"
 "http://www.w3.org/Graphics/SVG/1.1/DTD/svg11.dtd">
<!-- Generated by graphviz version 7.0.6 (20230106.0513)
 -->
<!-- Title: AnimationSystem::Mesh::AnimatedMesh Pages: 1 -->
<svg width="906pt" height="456pt"
 viewBox="0.00 0.00 905.50 456.00" xmlns="http://www.w3.org/2000/svg" xmlns:xlink="http://www.w3.org/1999/xlink">
<g id="graph0" class="graph" transform="scale(1 1) rotate(0) translate(4 452)">
<title>AnimationSystem::Mesh::AnimatedMesh</title>
<!-- Node1 -->
<g id="node1" class="node">
<title>Node1</title>
<g id="a_node1"><a xlink:title="An animatable mesh object, a skinned mesh containing an animator.">
<polygon fill="#999999" stroke="#666666" points="638,-140 0,-140 0,0 638,0 638,-140"/>
<text text-anchor="middle" x="319" y="-128" font-family="Helvetica,sans-Serif" font-size="10.00">{AnimationSystem::Mesh::AnimatedMesh</text>
<text text-anchor="start" x="8" y="-117" font-family="Helvetica,sans-Serif" font-size="10.00">|&#45; std::unique_ptr&lt; AnimationBlendTree &gt; animator_</text>
<text text-anchor="start" x="8" y="-106" font-family="Helvetica,sans-Serif" font-size="10.00">|+ StringId ID() const override</text>
<text text-anchor="start" x="8" y="-95" font-family="Helvetica,sans-Serif" font-size="10.00">+ IMeshTreeAnimator &amp; Animator() const override</text>
<text text-anchor="start" x="8" y="-84" font-family="Helvetica,sans-Serif" font-size="10.00">+ PureResult UpdateAnimation(float frameTime) override</text>
<text text-anchor="start" x="8" y="-73" font-family="Helvetica,sans-Serif" font-size="10.00">+ void SetTransform(gef::Matrix44 const &amp;transform) override</text>
<text text-anchor="start" x="8" y="-62" font-family="Helvetica,sans-Serif" font-size="10.00">+ void RenderSelf(gef::Renderer3D &amp;renderer3D) override</text>
<text text-anchor="start" x="8" y="-51" font-family="Helvetica,sans-Serif" font-size="10.00">+ gef::SkeletonPose const &amp; GetBindPose() const</text>
<text text-anchor="start" x="8" y="-40" font-family="Helvetica,sans-Serif" font-size="10.00">+ gef::SkinnedMeshInstance const &amp; GetSkinnedMesh() const</text>
<text text-anchor="start" x="8" y="-29" font-family="Helvetica,sans-Serif" font-size="10.00">+ StringId GetSkinnedNameID() const</text>
<text text-anchor="start" x="8" y="-18" font-family="Helvetica,sans-Serif" font-size="10.00">&#45; &#160;AnimatedMesh(StringId nameId, SkinnedMeshInstance const &amp;skinnedMeshInstance, IAnimationContainerProvider const &amp;animationProvider)</text>
<text text-anchor="middle" x="319" y="-7" font-family="Helvetica,sans-Serif" font-size="10.00">}</text>
</a>
</g>
</g>
<!-- Node2 -->
<g id="node2" class="node">
<title>Node2</title>
<g id="a_node2"><a xlink:href="class_animation_system_1_1_mesh_1_1_i_animated_mesh.html" target="_top" xlink:title="Restricted interface to an animatable mesh object.">
<polygon fill="white" stroke="#666666" points="283,-288.5 5,-288.5 5,-192.5 283,-192.5 283,-288.5"/>
<text text-anchor="middle" x="144" y="-276.5" font-family="Helvetica,sans-Serif" font-size="10.00">{AnimationSystem::Mesh::IAnimatedMesh</text>
<text text-anchor="start" x="13" y="-265.5" font-family="Helvetica,sans-Serif" font-size="10.00">||+ virtual ~IAnimatedMesh()=default</text>
<text text-anchor="start" x="13" y="-254.5" font-family="Helvetica,sans-Serif" font-size="10.00">+ virtual StringId ID() const =0</text>
<text text-anchor="start" x="13" y="-243.5" font-family="Helvetica,sans-Serif" font-size="10.00">+ virtual IMeshTreeAnimator &amp; Animator() const =0</text>
<text text-anchor="start" x="13" y="-232.5" font-family="Helvetica,sans-Serif" font-size="10.00">+ virtual PureResult UpdateAnimation(float frameTime)=0</text>
<text text-anchor="start" x="13" y="-221.5" font-family="Helvetica,sans-Serif" font-size="10.00">+ virtual void SetTransform(gef::Matrix44 const &amp;matrix44)=0</text>
<text text-anchor="start" x="13" y="-210.5" font-family="Helvetica,sans-Serif" font-size="10.00">+ virtual void RenderSelf(gef::Renderer3D &amp;renderer3D)=0</text>
<text text-anchor="middle" x="144" y="-199.5" font-family="Helvetica,sans-Serif" font-size="10.00">}</text>
</a>
</g>
</g>
<!-- Node2&#45;&gt;Node1 -->
<g id="edge1" class="edge">
<title>Node2&#45;&gt;Node1</title>
<path fill="none" stroke="#63b8ff" d="M201.19,-184.44C215.81,-170.36 231.71,-155.05 246.97,-140.36"/>
<polygon fill="none" stroke="#63b8ff" points="199.08,-181.61 194.3,-191.07 203.93,-186.65 199.08,-181.61"/>
</g>
<!-- Node3 -->
<g id="node3" class="node">
<title>Node3</title>
<g id="a_node3"><a xlink:title=" ">
<polygon fill="white" stroke="#bfbfbf" points="414.5,-371 361.5,-371 361.5,-341 414.5,-341 414.5,-371"/>
<text text-anchor="middle" x="388" y="-359" font-family="Helvetica,sans-Serif" font-size="10.00">{StringId</text>
<text text-anchor="middle" x="388" y="-348" font-family="Helvetica,sans-Serif" font-size="10.00">||}</text>
</a>
</g>
</g>
<!-- Node3&#45;&gt;Node1 -->
<g id="edge2" class="edge">
<title>Node3&#45;&gt;Node1</title>
<path fill="none" stroke="#404040" d="M367.3,-340.53C353.44,-329.54 336.27,-313.08 328,-294 309.01,-250.16 306.23,-196.83 308.44,-153.31"/>
<polygon fill="none" stroke="#404040" points="308.44,-153.31 304.83,-147.07 309.2,-141.34 312.81,-147.58 308.44,-153.31"/>
<text text-anchor="middle" x="352.5" y="-238" font-family="Helvetica,sans-Serif" font-size="10.00"> &#45;name_id_</text>
</g>
<!-- Node4 -->
<g id="node4" class="node">
<title>Node4</title>
<g id="a_node4"><a xlink:href="class_animation_system_1_1_mesh_1_1_skinned_mesh_instance.html" target="_top" xlink:title="Wrapper class for gef::SkinnedMeshInstance which encapsulates creation and storage of the mesh....">
<polygon fill="white" stroke="#666666" points="897.5,-294 386.5,-294 386.5,-187 897.5,-187 897.5,-294"/>
<text text-anchor="middle" x="642" y="-282" font-family="Helvetica,sans-Serif" font-size="10.00">{AnimationSystem::Mesh::SkinnedMeshInstance</text>
<text text-anchor="start" x="394.5" y="-271" font-family="Helvetica,sans-Serif" font-size="10.00">||+ &#160;SkinnedMeshInstance()=default</text>
<text text-anchor="start" x="394.5" y="-260" font-family="Helvetica,sans-Serif" font-size="10.00">+ &#160;SkinnedMeshInstance(SkinnedMeshInstance const &amp;other)=delete</text>
<text text-anchor="start" x="394.5" y="-249" font-family="Helvetica,sans-Serif" font-size="10.00">+ SkinnedMeshInstance &amp; operator=(SkinnedMeshInstance const &amp;other)=delete</text>
<text text-anchor="start" x="394.5" y="-238" font-family="Helvetica,sans-Serif" font-size="10.00">+ PureResult CreateSkinnedMesh(StringId id, gef::Platform &amp;platform, std::unique_ptr&lt; gef::Scene &gt; modelScene)</text>
<text text-anchor="start" x="394.5" y="-227" font-family="Helvetica,sans-Serif" font-size="10.00">+ gef::SkinnedMeshInstance &amp; SkinnedMesh() const</text>
<text text-anchor="start" x="394.5" y="-216" font-family="Helvetica,sans-Serif" font-size="10.00">+ StringId NameID() const</text>
<text text-anchor="start" x="394.5" y="-205" font-family="Helvetica,sans-Serif" font-size="10.00">&#45; PureResult Create(StringId id, gef::Platform &amp;platform)</text>
<text text-anchor="middle" x="642" y="-194" font-family="Helvetica,sans-Serif" font-size="10.00">}</text>
</a>
</g>
</g>
<!-- Node3&#45;&gt;Node4 -->
<g id="edge8" class="edge">
<title>Node3&#45;&gt;Node4</title>
<path fill="none" stroke="#404040" d="M414.7,-343.07C438.48,-332.44 475.14,-316.06 512.12,-299.54"/>
<polygon fill="none" stroke="#404040" points="511.82,-299.67 515.66,-293.57 522.77,-294.78 518.93,-300.88 511.82,-299.67"/>
<text text-anchor="middle" x="502.5" y="-315" font-family="Helvetica,sans-Serif" font-size="10.00"> &#45;string_id_</text>
</g>
<!-- Node4&#45;&gt;Node1 -->
<g id="edge3" class="edge">
<title>Node4&#45;&gt;Node1</title>
<path fill="none" stroke="#404040" d="M540.69,-186.65C516.19,-173.87 489.54,-159.96 463.48,-146.37"/>
<polygon fill="none" stroke="#404040" points="463.4,-146.33 456.23,-147.1 452.76,-140.78 459.93,-140.01 463.4,-146.33"/>
<text text-anchor="middle" x="558.5" y="-161" font-family="Helvetica,sans-Serif" font-size="10.00"> &#45;skinned_mesh_instance_</text>
</g>
<!-- Node5 -->
<g id="node5" class="node">
<title>Node5</title>
<g id="a_node5"><a xlink:title=" ">
<polygon fill="white" stroke="#bfbfbf" points="649.5,-371 452.5,-371 452.5,-341 649.5,-341 649.5,-371"/>
<text text-anchor="middle" x="551" y="-359" font-family="Helvetica,sans-Serif" font-size="10.00">{unique_ptr&lt; gef::SkinnedMeshInstance &gt;</text>
<text text-anchor="middle" x="551" y="-348" font-family="Helvetica,sans-Serif" font-size="10.00">||}</text>
</a>
</g>
</g>
<!-- Node5&#45;&gt;Node4 -->
<g id="edge4" class="edge">
<title>Node5&#45;&gt;Node4</title>
<path fill="none" stroke="#404040" d="M562.53,-340.63C570.15,-331.12 580.72,-317.93 591.67,-304.27"/>
<polygon fill="none" stroke="#404040" points="591.6,-304.36 592.24,-297.17 599.11,-294.99 598.48,-302.18 591.6,-304.36"/>
<text text-anchor="middle" x="621.5" y="-315" font-family="Helvetica,sans-Serif" font-size="10.00"> &#45;skinned_mesh_</text>
</g>
<!-- Node6 -->
<g id="node6" class="node">
<title>Node6</title>
<g id="a_node6"><a xlink:title=" ">
<polygon fill="white" stroke="#bfbfbf" points="673.5,-448 608.5,-448 608.5,-418 673.5,-418 673.5,-448"/>
<text text-anchor="middle" x="641" y="-436" font-family="Helvetica,sans-Serif" font-size="10.00">{unique_ptr</text>
<text text-anchor="middle" x="641" y="-425" font-family="Helvetica,sans-Serif" font-size="10.00">||}</text>
</a>
</g>
</g>
<!-- Node6&#45;&gt;Node5 -->
<g id="edge5" class="edge">
<title>Node6&#45;&gt;Node5</title>
<path fill="none" stroke="orange" d="M597.63,-419.53C586.89,-414.8 576.14,-408.44 568,-400 560.42,-392.14 556.1,-380.5 553.71,-371.31"/>
<polygon fill="orange" stroke="orange" points="596.28,-422.76 606.86,-423.18 598.85,-416.25 596.28,-422.76"/>
<text text-anchor="middle" x="636" y="-392" font-family="Helvetica,sans-Serif" font-size="10.00"> &lt; gef::SkinnedMeshInstance &gt;</text>
</g>
<!-- Node7 -->
<g id="node7" class="node">
<title>Node7</title>
<g id="a_node7"><a xlink:title=" ">
<polygon fill="white" stroke="#bfbfbf" points="796.5,-371 667.5,-371 667.5,-341 796.5,-341 796.5,-371"/>
<text text-anchor="middle" x="732" y="-359" font-family="Helvetica,sans-Serif" font-size="10.00">{unique_ptr&lt; gef::Scene &gt;</text>
<text text-anchor="middle" x="732" y="-348" font-family="Helvetica,sans-Serif" font-size="10.00">||}</text>
</a>
</g>
</g>
<!-- Node6&#45;&gt;Node7 -->
<g id="edge7" class="edge">
<title>Node6&#45;&gt;Node7</title>
<path fill="none" stroke="orange" d="M683.64,-414.22C690.87,-410.16 697.98,-405.41 704,-400 713.01,-391.9 720.35,-380.27 725.25,-371.15"/>
<polygon fill="orange" stroke="orange" points="682.4,-410.93 675.14,-418.65 685.63,-417.14 682.4,-410.93"/>
<text text-anchor="middle" x="747" y="-392" font-family="Helvetica,sans-Serif" font-size="10.00"> &lt; gef::Scene &gt;</text>
</g>
<!-- Node7&#45;&gt;Node4 -->
<g id="edge6" class="edge">
<title>Node7&#45;&gt;Node4</title>
<path fill="none" stroke="#404040" d="M720.6,-340.63C713.07,-331.12 702.61,-317.93 691.78,-304.27"/>
<polygon fill="none" stroke="#404040" points="691.88,-304.4 685.01,-302.18 684.42,-295 691.28,-297.21 691.88,-304.4"/>
<text text-anchor="middle" x="740" y="-315" font-family="Helvetica,sans-Serif" font-size="10.00"> &#45;model_scene_</text>
</g>
</g>
</svg>
