<?xml version="1.0" encoding="UTF-8" standalone="no"?>
<!DOCTYPE svg PUBLIC "-//W3C//DTD SVG 1.1//EN"
 "http://www.w3.org/Graphics/SVG/1.1/DTD/svg11.dtd">
<!-- Generated by graphviz version 7.0.6 (20230106.0513)
 -->
<!-- Title: Graphical Class Hierarchy Pages: 1 -->
<svg width="851pt" height="64pt"
 viewBox="0.00 0.00 851.00 64.00" xmlns="http://www.w3.org/2000/svg" xmlns:xlink="http://www.w3.org/1999/xlink">
<g id="graph0" class="graph" transform="scale(1 1) rotate(0) translate(4 60)">
<title>Graphical Class Hierarchy</title>
<!-- Node0 -->
<g id="node1" class="node">
<title>Node0</title>
<g id="a_node1"><a xlink:title=" ">
<polygon fill="#e0e0e0" stroke="#999999" points="84,-37 0,-37 0,-18 84,-18 84,-37"/>
<text text-anchor="middle" x="42" y="-25" font-family="Helvetica,sans-Serif" font-size="10.00">DataBlockBase</text>
</a>
</g>
</g>
<!-- Node1 -->
<g id="node2" class="node">
<title>Node1</title>
<g id="a_node2"><a xlink:href="struct_animation_system_1_1_mesh_1_1_blend_tree_1_1_i_k_node_1_1_data_block.html" target="_top" xlink:title=" ">
<polygon fill="white" stroke="#666666" points="403,-56 141,-56 141,-37 403,-37 403,-56"/>
<text text-anchor="middle" x="272" y="-44" font-family="Helvetica,sans-Serif" font-size="10.00">AnimationSystem::Mesh::BlendTree::IKNode::DataBlock</text>
</a>
</g>
</g>
<!-- Node0&#45;&gt;Node1 -->
<g id="edge1" class="edge">
<title>Node0&#45;&gt;Node1</title>
<path fill="none" stroke="#63b8ff" d="M95.51,-31.88C112.35,-33.28 131.74,-34.9 151.36,-36.53"/>
<polygon fill="#63b8ff" stroke="#63b8ff" points="96.05,-28.41 85.8,-31.07 95.47,-35.38 96.05,-28.41"/>
</g>
<!-- Node2 -->
<g id="node3" class="node">
<title>Node2</title>
<g id="a_node3"><a xlink:href="struct_animation_system_1_1_mesh_1_1_blend_tree_1_1_linear_blend_node_1_1_data_block.html" target="_top" xlink:title=" ">
<polygon fill="white" stroke="#666666" points="424,-19 120,-19 120,0 424,0 424,-19"/>
<text text-anchor="middle" x="272" y="-7" font-family="Helvetica,sans-Serif" font-size="10.00">AnimationSystem::Mesh::BlendTree::LinearBlendNode::DataBlock</text>
</a>
</g>
</g>
<!-- Node0&#45;&gt;Node2 -->
<g id="edge2" class="edge">
<title>Node0&#45;&gt;Node2</title>
<path fill="none" stroke="#63b8ff" d="M95.73,-23.34C110.57,-22.17 127.38,-20.84 144.56,-19.48"/>
<polygon fill="#63b8ff" stroke="#63b8ff" points="95.49,-19.84 85.8,-24.12 96.04,-26.82 95.49,-19.84"/>
</g>
<!-- Node3 -->
<g id="node4" class="node">
<title>Node3</title>
<g id="a_node4"><a xlink:href="struct_animation_system_1_1_mesh_1_1_blend_tree_1_1_two_animators_linear_transition_node_1_1_data_block.html" target="_top" xlink:title=" ">
<polygon fill="white" stroke="#666666" points="843,-19 460,-19 460,0 843,0 843,-19"/>
<text text-anchor="middle" x="651.5" y="-7" font-family="Helvetica,sans-Serif" font-size="10.00">AnimationSystem::Mesh::BlendTree::TwoAnimatorsLinearTransitionNode::DataBlock</text>
</a>
</g>
</g>
<!-- Node2&#45;&gt;Node3 -->
<g id="edge3" class="edge">
<title>Node2&#45;&gt;Node3</title>
<path fill="none" stroke="#63b8ff" d="M435.83,-9.5C443.69,-9.5 451.61,-9.5 459.54,-9.5"/>
<polygon fill="#63b8ff" stroke="#63b8ff" points="435.88,-6 425.88,-9.5 435.88,-13 435.88,-6"/>
</g>
</g>
</svg>
