<?xml version="1.0" encoding="UTF-8" standalone="no"?>
<!DOCTYPE svg PUBLIC "-//W3C//DTD SVG 1.1//EN"
 "http://www.w3.org/Graphics/SVG/1.1/DTD/svg11.dtd">
<!-- Generated by graphviz version 7.0.6 (20230106.0513)
 -->
<!-- Title: Graphical Class Hierarchy Pages: 1 -->
<svg width="533pt" height="64pt"
 viewBox="0.00 0.00 533.00 64.00" xmlns="http://www.w3.org/2000/svg" xmlns:xlink="http://www.w3.org/1999/xlink">
<g id="graph0" class="graph" transform="scale(1 1) rotate(0) translate(4 60)">
<title>Graphical Class Hierarchy</title>
<!-- Node0 -->
<g id="node1" class="node">
<title>Node0</title>
<g id="a_node1"><a xlink:href="class_animation_system_1_1_file_parsing_1_1_json_result.html" target="_top" xlink:title="Result of a parsed json file.">
<polygon fill="white" stroke="#666666" points="203,-37 0,-37 0,-18 203,-18 203,-37"/>
<text text-anchor="middle" x="101.5" y="-25" font-family="Helvetica,sans-Serif" font-size="10.00">AnimationSystem::FileParsing::JsonResult</text>
</a>
</g>
</g>
<!-- Node1 -->
<g id="node2" class="node">
<title>Node1</title>
<g id="a_node2"><a xlink:href="class_animation_system_1_1_file_parsing_1_1_rapid_json_document_result.html" target="_top" xlink:title=" ">
<polygon fill="white" stroke="#666666" points="518,-56 246,-56 246,-37 518,-37 518,-56"/>
<text text-anchor="middle" x="382" y="-44" font-family="Helvetica,sans-Serif" font-size="10.00">AnimationSystem::FileParsing::RapidJsonDocumentResult</text>
</a>
</g>
</g>
<!-- Node0&#45;&gt;Node1 -->
<g id="edge1" class="edge">
<title>Node0&#45;&gt;Node1</title>
<path fill="none" stroke="#63b8ff" d="M214.78,-35.16C224.92,-35.85 235.25,-36.56 245.56,-37.26"/>
<polygon fill="#63b8ff" stroke="#63b8ff" points="215.16,-31.68 204.95,-34.49 214.69,-38.66 215.16,-31.68"/>
</g>
<!-- Node2 -->
<g id="node3" class="node">
<title>Node2</title>
<g id="a_node3"><a xlink:href="class_animation_system_1_1_file_parsing_1_1_rapid_json_generic_value_result.html" target="_top" xlink:title=" ">
<polygon fill="white" stroke="#666666" points="525,-19 239,-19 239,0 525,0 525,-19"/>
<text text-anchor="middle" x="382" y="-7" font-family="Helvetica,sans-Serif" font-size="10.00">AnimationSystem::FileParsing::RapidJsonGenericValueResult</text>
</a>
</g>
</g>
<!-- Node0&#45;&gt;Node2 -->
<g id="edge2" class="edge">
<title>Node0&#45;&gt;Node2</title>
<path fill="none" stroke="#63b8ff" d="M214.89,-20.24C222.77,-19.73 230.77,-19.21 238.78,-18.69"/>
<polygon fill="#63b8ff" stroke="#63b8ff" points="214.7,-16.74 204.95,-20.88 215.15,-23.73 214.7,-16.74"/>
</g>
</g>
</svg>
