<?xml version="1.0" encoding="UTF-8" standalone="no"?>
<!DOCTYPE svg PUBLIC "-//W3C//DTD SVG 1.1//EN"
 "http://www.w3.org/Graphics/SVG/1.1/DTD/svg11.dtd">
<!-- Generated by graphviz version 7.0.6 (20230106.0513)
 -->
<!-- Title: Graphical Class Hierarchy Pages: 1 -->
<svg width="509pt" height="64pt"
 viewBox="0.00 0.00 509.00 64.00" xmlns="http://www.w3.org/2000/svg" xmlns:xlink="http://www.w3.org/1999/xlink">
<g id="graph0" class="graph" transform="scale(1 1) rotate(0) translate(4 60)">
<title>Graphical Class Hierarchy</title>
<!-- Node0 -->
<g id="node1" class="node">
<title>Node0</title>
<g id="a_node1"><a xlink:href="struct_animation_system_1_1_skeletal_1_1_bone_key_frame.html" target="_top" xlink:title="Abstract base class for a key frame of a bone.">
<polygon fill="white" stroke="#666666" points="209,-37 0,-37 0,-18 209,-18 209,-37"/>
<text text-anchor="middle" x="104.5" y="-25" font-family="Helvetica,sans-Serif" font-size="10.00">AnimationSystem::Skeletal::BoneKeyFrame</text>
</a>
</g>
</g>
<!-- Node1 -->
<g id="node2" class="node">
<title>Node1</title>
<g id="a_node2"><a xlink:href="struct_animation_system_1_1_skeletal_1_1_bone_rotation_key_frame.html" target="_top" xlink:title=" ">
<polygon fill="white" stroke="#666666" points="495.5,-56 250.5,-56 250.5,-37 495.5,-37 495.5,-56"/>
<text text-anchor="middle" x="373" y="-44" font-family="Helvetica,sans-Serif" font-size="10.00">AnimationSystem::Skeletal::BoneRotationKeyFrame</text>
</a>
</g>
</g>
<!-- Node0&#45;&gt;Node1 -->
<g id="edge1" class="edge">
<title>Node0&#45;&gt;Node1</title>
<path fill="none" stroke="#63b8ff" d="M220.73,-35.72C230.53,-36.41 240.47,-37.12 250.31,-37.82"/>
<polygon fill="#63b8ff" stroke="#63b8ff" points="221.03,-32.23 210.81,-35.01 220.53,-39.21 221.03,-32.23"/>
</g>
<!-- Node2 -->
<g id="node3" class="node">
<title>Node2</title>
<g id="a_node3"><a xlink:href="struct_animation_system_1_1_skeletal_1_1_bone_translation_key_frame.html" target="_top" xlink:title=" ">
<polygon fill="white" stroke="#666666" points="501,-19 245,-19 245,0 501,0 501,-19"/>
<text text-anchor="middle" x="373" y="-7" font-family="Helvetica,sans-Serif" font-size="10.00">AnimationSystem::Skeletal::BoneTranslationKeyFrame</text>
</a>
</g>
</g>
<!-- Node0&#45;&gt;Node2 -->
<g id="edge2" class="edge">
<title>Node0&#45;&gt;Node2</title>
<path fill="none" stroke="#63b8ff" d="M220.62,-19.72C228.68,-19.18 236.83,-18.63 244.95,-18.08"/>
<polygon fill="#63b8ff" stroke="#63b8ff" points="220.55,-16.22 210.81,-20.39 221.02,-23.21 220.55,-16.22"/>
</g>
</g>
</svg>
