<?xml version="1.0" encoding="UTF-8" standalone="no"?>
<!DOCTYPE svg PUBLIC "-//W3C//DTD SVG 1.1//EN"
 "http://www.w3.org/Graphics/SVG/1.1/DTD/svg11.dtd">
<!-- Generated by graphviz version 7.0.6 (20230106.0513)
 -->
<!-- Title: AnimationSystem::Skeletal::BoneKeyFrameTranslationAndRotationTransition Pages: 1 -->
<svg width="1393pt" height="401pt"
 viewBox="0.00 0.00 1392.89 401.00" xmlns="http://www.w3.org/2000/svg" xmlns:xlink="http://www.w3.org/1999/xlink">
<g id="graph0" class="graph" transform="scale(1 1) rotate(0) translate(4 397)">
<title>AnimationSystem::Skeletal::BoneKeyFrameTranslationAndRotationTransition</title>
<!-- Node1 -->
<g id="node1" class="node">
<title>Node1</title>
<g id="a_node1"><a xlink:title="Data container to pair together translation and rotation transition between keyframes.">
<polygon fill="#999999" stroke="#666666" points="624.89,-74 101.89,-74 101.89,0 624.89,0 624.89,-74"/>
<text text-anchor="middle" x="363.39" y="-62" font-family="Helvetica,sans-Serif" font-size="10.00">{AnimationSystem::Skeletal::BoneKeyFrameTranslationAndRotationTransition</text>
<text text-anchor="start" x="109.89" y="-51" font-family="Helvetica,sans-Serif" font-size="10.00">||+ &#160;BoneKeyFrameTranslationAndRotationTransition(StringId const name, BoneKeyFrameTranslationTransition const</text>
<text text-anchor="start" x="109.89" y="-40" font-family="Helvetica,sans-Serif" font-size="10.00"> *translation, BoneKeyFrameRotationTransition const *rotation)</text>
<text text-anchor="start" x="109.89" y="-29" font-family="Helvetica,sans-Serif" font-size="10.00">+ bool HasTranslation() const</text>
<text text-anchor="start" x="109.89" y="-18" font-family="Helvetica,sans-Serif" font-size="10.00">+ bool HasRotation() const</text>
<text text-anchor="middle" x="363.39" y="-7" font-family="Helvetica,sans-Serif" font-size="10.00">}</text>
</a>
</g>
</g>
<!-- Node2 -->
<g id="node2" class="node">
<title>Node2</title>
<g id="a_node2"><a xlink:href="struct_animation_system_1_1_skeletal_1_1_bone_key_frame_translation_transition.html" target="_top" xlink:title=" ">
<polygon fill="white" stroke="#bfbfbf" points="685.39,-195 41.39,-195 41.39,-121 685.39,-121 685.39,-195"/>
<text text-anchor="middle" x="363.39" y="-183" font-family="Helvetica,sans-Serif" font-size="10.00">{AnimationSystem::Skeletal::BoneKeyFrameTranslationTransition</text>
<text text-anchor="start" x="49.39" y="-172" font-family="Helvetica,sans-Serif" font-size="10.00">||+ &#160;BoneKeyFrameTranslationTransition(StringId const boneName, BoneTranslationKeyFrame const &amp;beginFrame,</text>
<text text-anchor="start" x="49.39" y="-161" font-family="Helvetica,sans-Serif" font-size="10.00"> BoneTranslationKeyFrame const &amp;endFrame)</text>
<text text-anchor="start" x="49.39" y="-150" font-family="Helvetica,sans-Serif" font-size="10.00">+ gef::Vector2 GetCurrentPosition(float const currentTimeWrapped) const</text>
<text text-anchor="start" x="49.39" y="-139" font-family="Helvetica,sans-Serif" font-size="10.00">+ static unique_ptr&lt; BoneKeyFrameTranslationTransition &gt; MakeSoloFrame(StringId const boneName, BoneTranslationKeyFrame const &amp;frame)</text>
<text text-anchor="middle" x="363.39" y="-128" font-family="Helvetica,sans-Serif" font-size="10.00">}</text>
</a>
</g>
</g>
<!-- Node2&#45;&gt;Node1 -->
<g id="edge1" class="edge">
<title>Node2&#45;&gt;Node1</title>
<path fill="none" stroke="#404040" d="M363.39,-120.65C363.39,-110.04 363.39,-98.26 363.39,-87"/>
<polygon fill="none" stroke="#404040" points="363.39,-87.03 359.39,-81.03 363.39,-75.03 367.39,-81.03 363.39,-87.03"/>
<text text-anchor="middle" x="412.89" y="-95" font-family="Helvetica,sans-Serif" font-size="10.00"> +TranslationTransition</text>
</g>
<!-- Node3 -->
<g id="node3" class="node">
<title>Node3</title>
<g id="a_node3"><a xlink:href="struct_animation_system_1_1_skeletal_1_1_bone_key_frame_transition_base.html" target="_top" xlink:title="Holds two keyframes and describes the transition between them.">
<polygon fill="white" stroke="#666666" points="658.39,-316 68.39,-316 68.39,-242 658.39,-242 658.39,-316"/>
<text text-anchor="middle" x="363.39" y="-304" font-family="Helvetica,sans-Serif" font-size="10.00">{AnimationSystem::Skeletal::BoneKeyFrameTransitionBase</text>
<text text-anchor="start" x="76.39" y="-293" font-family="Helvetica,sans-Serif" font-size="10.00">||+ bool AnimationWithinThisTransitionAtThisTime(float const currentTimeWrapped) const</text>
<text text-anchor="start" x="76.39" y="-282" font-family="Helvetica,sans-Serif" font-size="10.00"># &#160;BoneKeyFrameTransitionBase(StringId const boneName, BoneKeyFrame const &amp;beginFrame, BoneKeyFrame const &amp;endFrame)</text>
<text text-anchor="start" x="76.39" y="-271" font-family="Helvetica,sans-Serif" font-size="10.00"># &#160;BoneKeyFrameTransitionBase(StringId const boneName, BoneKeyFrame const &amp;beginFrame)</text>
<text text-anchor="start" x="76.39" y="-260" font-family="Helvetica,sans-Serif" font-size="10.00"># float GetLerpPercent(float const currentTimeWrapped) const</text>
<text text-anchor="middle" x="363.39" y="-249" font-family="Helvetica,sans-Serif" font-size="10.00">}</text>
</a>
</g>
</g>
<!-- Node3&#45;&gt;Node2 -->
<g id="edge2" class="edge">
<title>Node3&#45;&gt;Node2</title>
<path fill="none" stroke="#63b8ff" d="M363.39,-230.22C363.39,-218.52 363.39,-206.18 363.39,-195.13"/>
<polygon fill="none" stroke="#63b8ff" points="359.89,-230.14 363.39,-240.14 366.89,-230.14 359.89,-230.14"/>
</g>
<!-- Node5 -->
<g id="node5" class="node">
<title>Node5</title>
<g id="a_node5"><a xlink:href="struct_animation_system_1_1_skeletal_1_1_bone_key_frame_rotation_transition.html" target="_top" xlink:title=" ">
<polygon fill="white" stroke="#bfbfbf" points="1384.89,-195 703.89,-195 703.89,-121 1384.89,-121 1384.89,-195"/>
<text text-anchor="middle" x="1044.39" y="-183" font-family="Helvetica,sans-Serif" font-size="10.00">{AnimationSystem::Skeletal::BoneKeyFrameRotationTransition</text>
<text text-anchor="start" x="711.89" y="-172" font-family="Helvetica,sans-Serif" font-size="10.00">||+ &#160;BoneKeyFrameRotationTransition(StringId const boneName, BoneRotationKeyFrame const &amp;beginFrame, BoneRotationKeyFrame const &amp;endFrame)</text>
<text text-anchor="start" x="711.89" y="-161" font-family="Helvetica,sans-Serif" font-size="10.00">+ float GetCurrentRotation(float const currentTimeWrapped) const</text>
<text text-anchor="start" x="711.89" y="-150" font-family="Helvetica,sans-Serif" font-size="10.00">+ static unique_ptr&lt; BoneKeyFrameRotationTransition &gt; MakeSoloFrame(StringId const boneName, unique_ptr</text>
<text text-anchor="start" x="711.89" y="-139" font-family="Helvetica,sans-Serif" font-size="10.00">&lt; BoneRotationKeyFrame &gt;::element_type const &amp;frame)</text>
<text text-anchor="middle" x="1044.39" y="-128" font-family="Helvetica,sans-Serif" font-size="10.00">}</text>
</a>
</g>
</g>
<!-- Node3&#45;&gt;Node5 -->
<g id="edge5" class="edge">
<title>Node3&#45;&gt;Node5</title>
<path fill="none" stroke="#63b8ff" d="M582.74,-239.67C663.82,-225.5 755.44,-209.49 835.57,-195.49"/>
<polygon fill="none" stroke="#63b8ff" points="582.62,-236.14 573.37,-241.31 583.82,-243.03 582.62,-236.14"/>
</g>
<!-- Node4 -->
<g id="node4" class="node">
<title>Node4</title>
<g id="a_node4"><a xlink:title=" ">
<polygon fill="white" stroke="#bfbfbf" points="55.89,-393 2.89,-393 2.89,-363 55.89,-363 55.89,-393"/>
<text text-anchor="middle" x="29.39" y="-381" font-family="Helvetica,sans-Serif" font-size="10.00">{StringId</text>
<text text-anchor="middle" x="29.39" y="-370" font-family="Helvetica,sans-Serif" font-size="10.00">||}</text>
</a>
</g>
</g>
<!-- Node4&#45;&gt;Node1 -->
<g id="edge6" class="edge">
<title>Node4&#45;&gt;Node1</title>
<path fill="none" stroke="#404040" d="M24.15,-362.57C9.75,-320.19 -25.59,-194.43 32.39,-121 46.09,-103.65 79.94,-89.36 121.02,-77.82"/>
<polygon fill="none" stroke="#404040" points="120.93,-77.85 125.68,-72.42 132.51,-74.72 127.76,-80.15 120.93,-77.85"/>
<text text-anchor="middle" x="30.39" y="-216" font-family="Helvetica,sans-Serif" font-size="10.00"> +BoneName</text>
</g>
<!-- Node4&#45;&gt;Node3 -->
<g id="edge3" class="edge">
<title>Node4&#45;&gt;Node3</title>
<path fill="none" stroke="#404040" d="M56.16,-369.23C93.1,-358.5 162.34,-338.39 225.75,-319.97"/>
<polygon fill="none" stroke="#404040" points="225.54,-320.04 230.19,-314.52 237.06,-316.69 232.42,-322.2 225.54,-320.04"/>
<text text-anchor="middle" x="205.39" y="-337" font-family="Helvetica,sans-Serif" font-size="10.00"> +BoneName</text>
</g>
<!-- Node5&#45;&gt;Node1 -->
<g id="edge4" class="edge">
<title>Node5&#45;&gt;Node1</title>
<path fill="none" stroke="#404040" d="M835.91,-120.57C756.47,-106.69 665.69,-90.82 585.07,-76.74"/>
<polygon fill="none" stroke="#404040" points="584.93,-76.71 578.33,-79.62 573.11,-74.65 579.71,-71.74 584.93,-76.71"/>
<text text-anchor="middle" x="767.39" y="-95" font-family="Helvetica,sans-Serif" font-size="10.00"> +RotationTransition</text>
</g>
</g>
</svg>
