<?xml version="1.0" encoding="UTF-8" standalone="no"?>
<!DOCTYPE svg PUBLIC "-//W3C//DTD SVG 1.1//EN"
 "http://www.w3.org/Graphics/SVG/1.1/DTD/svg11.dtd">
<!-- Generated by graphviz version 7.0.6 (20230106.0513)
 -->
<!-- Title: AnimationSystem::Skeletal::BoneRotationKeyFrame Pages: 1 -->
<svg width="543pt" height="226pt"
 viewBox="0.00 0.00 543.00 226.00" xmlns="http://www.w3.org/2000/svg" xmlns:xlink="http://www.w3.org/1999/xlink">
<g id="graph0" class="graph" transform="scale(1 1) rotate(0) translate(4 222)">
<title>AnimationSystem::Skeletal::BoneRotationKeyFrame</title>
<!-- Node1 -->
<g id="node1" class="node">
<title>Node1</title>
<g id="a_node1"><a xlink:title=" ">
<polygon fill="#999999" stroke="#666666" points="535,-52 0,-52 0,0 535,0 535,-52"/>
<text text-anchor="middle" x="267.5" y="-40" font-family="Helvetica,sans-Serif" font-size="10.00">{AnimationSystem::Skeletal::BoneRotationKeyFrame</text>
<text text-anchor="start" x="8" y="-29" font-family="Helvetica,sans-Serif" font-size="10.00">|+ float const RotationDelta</text>
<text text-anchor="start" x="8" y="-18" font-family="Helvetica,sans-Serif" font-size="10.00">|+ &#160;BoneRotationKeyFrame(StringId const name, float const absoluteTimeThisKeyframeBegan, float const rotationDelta)</text>
<text text-anchor="middle" x="267.5" y="-7" font-family="Helvetica,sans-Serif" font-size="10.00">}</text>
</a>
</g>
</g>
<!-- Node2 -->
<g id="node2" class="node">
<title>Node2</title>
<g id="a_node2"><a xlink:href="struct_animation_system_1_1_skeletal_1_1_bone_key_frame.html" target="_top" xlink:title="Abstract base class for a key frame of a bone.">
<polygon fill="white" stroke="#666666" points="462,-141 73,-141 73,-89 462,-89 462,-141"/>
<text text-anchor="middle" x="267.5" y="-129" font-family="Helvetica,sans-Serif" font-size="10.00">{AnimationSystem::Skeletal::BoneKeyFrame</text>
<text text-anchor="start" x="81" y="-118" font-family="Helvetica,sans-Serif" font-size="10.00">|+ float const KeyframeHitTime</text>
<text text-anchor="start" x="81" y="-107" font-family="Helvetica,sans-Serif" font-size="10.00">|# &#160;BoneKeyFrame(StringId const name, float const absoluteTimeThisKeyframeBegan)</text>
<text text-anchor="middle" x="267.5" y="-96" font-family="Helvetica,sans-Serif" font-size="10.00">}</text>
</a>
</g>
</g>
<!-- Node2&#45;&gt;Node1 -->
<g id="edge1" class="edge">
<title>Node2&#45;&gt;Node1</title>
<path fill="none" stroke="#63b8ff" d="M267.5,-77.34C267.5,-68.95 267.5,-60.21 267.5,-52.41"/>
<polygon fill="none" stroke="#63b8ff" points="264,-77.32 267.5,-87.32 271,-77.32 264,-77.32"/>
</g>
<!-- Node3 -->
<g id="node3" class="node">
<title>Node3</title>
<g id="a_node3"><a xlink:title=" ">
<polygon fill="white" stroke="#bfbfbf" points="294,-218 241,-218 241,-188 294,-188 294,-218"/>
<text text-anchor="middle" x="267.5" y="-206" font-family="Helvetica,sans-Serif" font-size="10.00">{StringId</text>
<text text-anchor="middle" x="267.5" y="-195" font-family="Helvetica,sans-Serif" font-size="10.00">||}</text>
</a>
</g>
</g>
<!-- Node3&#45;&gt;Node2 -->
<g id="edge2" class="edge">
<title>Node3&#45;&gt;Node2</title>
<path fill="none" stroke="#404040" d="M267.5,-187.8C267.5,-178.65 267.5,-166.28 267.5,-154.38"/>
<polygon fill="none" stroke="#404040" points="267.5,-154.25 263.5,-148.25 267.5,-142.25 271.5,-148.25 267.5,-154.25"/>
<text text-anchor="middle" x="296.5" y="-162" font-family="Helvetica,sans-Serif" font-size="10.00"> +BoneName</text>
</g>
</g>
</svg>
